# xmcd
#
# Track frame offsets:
#  150
#  13526
#  28315
#  40166
#  51511
#  67278
#  86838
#  102560
#  117510
#  129449
#
# Disc length: 1860 seconds
#
# Revision: 0
# Processed by: cddbd v1.4PL0 Copyright (c) Steve Scherf et al.
# Submitted via: AltoMP3_Maker 3.0
#
DISCID=9507420a
DTITLE=Kenny Rogers and the First Edition - Reflections
DYEAR=1900
DGENRE=
TTITLE0=Ruby, Don't Take Your Love To Town
TTITLE1=For the Good Times
TTITLE2=Good Lady Of Toronto
TTITLE3=Where Does Rosie Go
TTITLE4=Lay It Down
TTITLE5=Tell It All Brother
TTITLE6=Love Woman
TTITLE7=I'm Going To Sing A Sad Song to Suzie
TTITLE8=The King Of Oak Street
TTITLE9=Shine On Ruby Mountain
EXTD=
EXTT0=
EXTT1=
EXTT2=
EXTT3=
EXTT4=
EXTT5=
EXTT6=
EXTT7=
EXTT8=
EXTT9=
PLAYORDER=
